REM DIRINDEX 1\2\5,1\2\6,1\2\7,1\2\8,1\3\9,1\3\10,1\3\11,1\4\12,1\4\13,1\4\14,1\4\15,1\4\16
REM DIRNAME cjc034,folder01,folder02,folder03,folder04,folder05,folder06,folder07,folder08,folder09,folder10,folder11,folder12,folder13,folder14,folder15
TITLE ""
FILE "1200_sec01_0185_0193.mp3" MP3
  TRACK 01 AUDIO
    TITLE "0:"
    INDEX 01 00:00:00
  TRACK 02 AUDIO
    TITLE "12:cjc034_04369"
    INDEX 01 00:00:19
  TRACK 03 AUDIO
    TITLE "0:"
    INDEX 01 00:01:30
  TRACK 04 AUDIO
    TITLE "13:cjc034_04370"
    INDEX 01 00:01:64
  TRACK 05 AUDIO
    TITLE "0:"
    INDEX 01 00:03:59
  TRACK 06 AUDIO
    TITLE "14:cjc034_04371"
    INDEX 01 00:04:23
  TRACK 07 AUDIO
    TITLE "0:"
    INDEX 01 00:05:32
  TRACK 08 AUDIO
    TITLE "15:cjc034_04372"
    INDEX 01 00:05:65
  TRACK 09 AUDIO
    TITLE "0:"
    INDEX 01 00:09:02
  TRACK 10 AUDIO
    TITLE "12:cjc034_04373"
    INDEX 01 00:10:35
  TRACK 11 AUDIO
    TITLE "0:"
    INDEX 01 00:11:48
  TRACK 12 AUDIO
    TITLE "13:cjc034_04374"
    INDEX 01 00:12:09
  TRACK 13 AUDIO
    TITLE "0:"
    INDEX 01 00:13:20
  TRACK 14 AUDIO
    TITLE "14:cjc034_04375"
    INDEX 01 00:13:53
  TRACK 15 AUDIO
    TITLE "0:"
    INDEX 01 00:14:66
  TRACK 16 AUDIO
    TITLE "15:cjc034_04376"
    INDEX 01 00:15:25
  TRACK 17 AUDIO
    TITLE "0:"
    INDEX 01 00:18:54
  TRACK 18 AUDIO
    TITLE "12:cjc034_04377"
    INDEX 01 00:20:12
  TRACK 19 AUDIO
    TITLE "0:"
    INDEX 01 00:21:23
  TRACK 20 AUDIO
    TITLE "13:cjc034_04378"
    INDEX 01 00:21:57
  TRACK 21 AUDIO
    TITLE "0:"
    INDEX 01 00:23:59
  TRACK 22 AUDIO
    TITLE "14:cjc034_04379"
    INDEX 01 00:24:18
  TRACK 23 AUDIO
    TITLE "0:"
    INDEX 01 00:25:29
  TRACK 24 AUDIO
    TITLE "15:cjc034_04380"
    INDEX 01 00:25:60
  TRACK 25 AUDIO
    TITLE "0:"
    INDEX 01 00:28:02
  TRACK 26 AUDIO
    TITLE "12:cjc034_04381"
    INDEX 01 00:29:36
  TRACK 27 AUDIO
    TITLE "0:"
    INDEX 01 00:30:50
  TRACK 28 AUDIO
    TITLE "13:cjc034_04382"
    INDEX 01 00:31:12
  TRACK 29 AUDIO
    TITLE "0:"
    INDEX 01 00:32:23
  TRACK 30 AUDIO
    TITLE "14:cjc034_04383"
    INDEX 01 00:32:60
  TRACK 31 AUDIO
    TITLE "0:"
    INDEX 01 00:34:02
  TRACK 32 AUDIO
    TITLE "15:cjc034_04384"
    INDEX 01 00:34:34
  TRACK 33 AUDIO
    TITLE "0:"
    INDEX 01 00:37:65
  TRACK 34 AUDIO
    TITLE "12:cjc034_04385"
    INDEX 01 00:39:25
  TRACK 35 AUDIO
    TITLE "0:"
    INDEX 01 00:40:44
  TRACK 36 AUDIO
    TITLE "13:cjc034_04386"
    INDEX 01 00:41:04
  TRACK 37 AUDIO
    TITLE "0:"
    INDEX 01 00:42:14
  TRACK 38 AUDIO
    TITLE "14:cjc034_04387"
    INDEX 01 00:42:49
  TRACK 39 AUDIO
    TITLE "0:"
    INDEX 01 00:43:68
  TRACK 40 AUDIO
    TITLE "15:cjc034_04388"
    INDEX 01 00:44:28
  TRACK 41 AUDIO
    TITLE "0:"
    INDEX 01 00:47:62
  TRACK 42 AUDIO
    TITLE "12:cjc034_04389"
    INDEX 01 00:49:23
  TRACK 43 AUDIO
    TITLE "0:"
    INDEX 01 00:50:35
  TRACK 44 AUDIO
    TITLE "13:cjc034_04390"
    INDEX 01 00:50:72
  TRACK 45 AUDIO
    TITLE "0:"
    INDEX 01 00:52:02
  TRACK 46 AUDIO
    TITLE "14:cjc034_04391"
    INDEX 01 00:52:39
  TRACK 47 AUDIO
    TITLE "0:"
    INDEX 01 00:53:55
  TRACK 48 AUDIO
    TITLE "15:cjc034_04392"
    INDEX 01 00:54:17
  TRACK 49 AUDIO
    TITLE "0:"
    INDEX 01 00:58:71
  TRACK 50 AUDIO
    TITLE "12:cjc034_04393"
    INDEX 01 01:00:27
  TRACK 51 AUDIO
    TITLE "0:"
    INDEX 01 01:01:38
  TRACK 52 AUDIO
    TITLE "13:cjc034_04394"
    INDEX 01 01:01:70
  TRACK 53 AUDIO
    TITLE "0:"
    INDEX 01 01:04:23
  TRACK 54 AUDIO
    TITLE "14:cjc034_04395"
    INDEX 01 01:04:56
  TRACK 55 AUDIO
    TITLE "0:"
    INDEX 01 01:05:66
  TRACK 56 AUDIO
    TITLE "15:cjc034_04396"
    INDEX 01 01:06:24
  TRACK 57 AUDIO
    TITLE "0:"
    INDEX 01 01:09:50
  TRACK 58 AUDIO
    TITLE "12:cjc034_04397"
    INDEX 01 01:11:05
  TRACK 59 AUDIO
    TITLE "0:"
    INDEX 01 01:12:21
  TRACK 60 AUDIO
    TITLE "13:cjc034_04398"
    INDEX 01 01:12:54
  TRACK 61 AUDIO
    TITLE "0:"
    INDEX 01 01:14:17
  TRACK 62 AUDIO
    TITLE "14:cjc034_04399"
    INDEX 01 01:14:51
  TRACK 63 AUDIO
    TITLE "0:"
    INDEX 01 01:15:66
  TRACK 64 AUDIO
    TITLE "15:cjc034_04400"
    INDEX 01 01:16:24
  TRACK 65 AUDIO
    TITLE "0:"
    INDEX 01 01:19:66
  TRACK 66 AUDIO
    TITLE "16:cjc034_04401"
    INDEX 01 01:21:25
  TRACK 67 AUDIO
    TITLE "0:"
    INDEX 01 01:22:56
  TRACK 68 AUDIO
    TITLE "12:cjc034_04402"
    INDEX 01 01:23:58
  TRACK 69 AUDIO
    TITLE "0:"
    INDEX 01 01:25:02
  TRACK 70 AUDIO
    TITLE "13:cjc034_04403"
    INDEX 01 01:25:35
  TRACK 71 AUDIO
    TITLE "0:"
    INDEX 01 01:28:14
  TRACK 72 AUDIO
    TITLE "14:cjc034_04404"
    INDEX 01 01:28:51
  TRACK 73 AUDIO
    TITLE "0:"
    INDEX 01 01:29:68
  TRACK 74 AUDIO
    TITLE "15:cjc034_04405"
    INDEX 01 01:30:24
  TRACK 75 AUDIO
    TITLE "0:"
    INDEX 01 01:35:24
